<svg width="158" height="56" viewBox="0 0 158 56" fill="none" xmlns="http://www.w3.org/2000/svg">
<path d="M52.3789 19.3105C54.3785 19.3105 55.9998 20.9312 56 22.9307V33.0693C55.9998 35.0688 54.3784 36.6895 52.3789 36.6895H36.6895V52.3789C36.6895 54.3785 35.0689 55.9999 33.0693 56H22.9316C20.932 56 19.3105 54.3786 19.3105 52.3789V40.1855C19.6529 40.6305 20.0319 41.0758 20.4521 41.5176C20.4241 37.8366 22.002 29.5935 28.5381 26.0693C25.7823 28.4229 20.6574 34.8074 22.2021 41.5176C22.4636 39.848 24.3024 35.9777 29.5645 33.8535C33.8855 32.109 36.2228 24.6837 37.1992 19.3105H52.3789ZM33.0693 0C35.0689 0.000114719 36.6895 1.62151 36.6895 3.62109V17.2471C35.1493 18.6815 32.0755 20.6537 27.2109 21.6641C20.8094 22.9936 14.8511 29.5865 17.3672 36.6895H3.62109C1.62159 36.6895 0.000235129 35.0688 0 33.0693V22.9307C0.000164905 20.9312 1.62154 19.3105 3.62109 19.3105H19.3105V3.62109C19.3105 1.62144 20.932 -2.38456e-08 22.9316 0H33.0693Z" fill="url(#paint0_linear_78_32)"/>
<path d="M83.872 13.54L76.564 33H72.868L65.532 13.54H68.948L74.716 29.724L80.512 13.54H83.872ZM88.1654 15.528C87.5867 15.528 87.1014 15.332 86.7094 14.94C86.3174 14.548 86.1214 14.0627 86.1214 13.484C86.1214 12.9053 86.3174 12.42 86.7094 12.028C87.1014 11.636 87.5867 11.44 88.1654 11.44C88.7254 11.44 89.2014 11.636 89.5934 12.028C89.9854 12.42 90.1814 12.9053 90.1814 13.484C90.1814 14.0627 89.9854 14.548 89.5934 14.94C89.2014 15.332 88.7254 15.528 88.1654 15.528ZM89.7334 17.572V33H86.5414V17.572H89.7334ZM97.1162 19.812C97.5829 19.028 98.1989 18.4213 98.9642 17.992C99.7482 17.544 100.672 17.32 101.736 17.32V20.624H100.924C99.6736 20.624 98.7216 20.9413 98.0682 21.576C97.4336 22.2107 97.1162 23.312 97.1162 24.88V33H93.9242V17.572H97.1162V19.812ZM108.394 20.176V28.716C108.394 29.2947 108.525 29.7147 108.786 29.976C109.066 30.2187 109.533 30.34 110.186 30.34H112.146V33H109.626C108.189 33 107.088 32.664 106.322 31.992C105.557 31.32 105.174 30.228 105.174 28.716V20.176H103.354V17.572H105.174V13.736H108.394V17.572H112.146V20.176H108.394ZM129.06 17.572V33H125.868V31.18C125.364 31.8147 124.702 32.3187 123.88 32.692C123.078 33.0467 122.219 33.224 121.304 33.224C120.091 33.224 118.999 32.972 118.028 32.468C117.076 31.964 116.32 31.2173 115.76 30.228C115.219 29.2387 114.948 28.044 114.948 26.644V17.572H118.112V26.168C118.112 27.5493 118.458 28.6133 119.148 29.36C119.839 30.088 120.782 30.452 121.976 30.452C123.171 30.452 124.114 30.088 124.804 29.36C125.514 28.6133 125.868 27.5493 125.868 26.168V17.572H129.06ZM132.208 25.216C132.208 23.6667 132.525 22.2947 133.16 21.1C133.813 19.9053 134.691 18.9813 135.792 18.328C136.912 17.656 138.144 17.32 139.488 17.32C140.701 17.32 141.756 17.5627 142.652 18.048C143.567 18.5147 144.295 19.1027 144.836 19.812V17.572H148.056V33H144.836V30.704C144.295 31.432 143.557 32.0387 142.624 32.524C141.691 33.0093 140.627 33.252 139.432 33.252C138.107 33.252 136.893 32.916 135.792 32.244C134.691 31.5533 133.813 30.6013 133.16 29.388C132.525 28.156 132.208 26.7653 132.208 25.216ZM144.836 25.272C144.836 24.208 144.612 23.284 144.164 22.5C143.735 21.716 143.165 21.1187 142.456 20.708C141.747 20.2973 140.981 20.092 140.16 20.092C139.339 20.092 138.573 20.2973 137.864 20.708C137.155 21.1 136.576 21.688 136.128 22.472C135.699 23.2373 135.484 24.152 135.484 25.216C135.484 26.28 135.699 27.2133 136.128 28.016C136.576 28.8187 137.155 29.4347 137.864 29.864C138.592 30.2747 139.357 30.48 140.16 30.48C140.981 30.48 141.747 30.2747 142.456 29.864C143.165 29.4533 143.735 28.856 144.164 28.072C144.612 27.2693 144.836 26.336 144.836 25.272ZM155.44 12.28V33H152.248V12.28H155.44Z" fill="url(#paint1_linear_78_32)"/>
<path d="M120.596 38.242V48H119.322V43.576H114.352V48H113.078V38.242H114.352V42.526H119.322V38.242H120.596ZM129.771 43.87C129.771 44.1127 129.757 44.3693 129.729 44.64H123.597C123.644 45.396 123.901 45.9887 124.367 46.418C124.843 46.838 125.417 47.048 126.089 47.048C126.64 47.048 127.097 46.922 127.461 46.67C127.835 46.4087 128.096 46.0633 128.245 45.634H129.617C129.412 46.3713 129.001 46.9733 128.385 47.44C127.769 47.8973 127.004 48.126 126.089 48.126C125.361 48.126 124.708 47.9627 124.129 47.636C123.56 47.3093 123.112 46.8473 122.785 46.25C122.459 45.6433 122.295 44.9433 122.295 44.15C122.295 43.3567 122.454 42.6613 122.771 42.064C123.089 41.4667 123.532 41.0093 124.101 40.692C124.68 40.3653 125.343 40.202 126.089 40.202C126.817 40.202 127.461 40.3607 128.021 40.678C128.581 40.9953 129.011 41.434 129.309 41.994C129.617 42.5447 129.771 43.17 129.771 43.87ZM128.455 43.604C128.455 43.1187 128.348 42.7033 128.133 42.358C127.919 42.0033 127.625 41.7373 127.251 41.56C126.887 41.3733 126.481 41.28 126.033 41.28C125.389 41.28 124.839 41.4853 124.381 41.896C123.933 42.3067 123.677 42.876 123.611 43.604H128.455ZM130.977 44.136C130.977 43.352 131.136 42.666 131.453 42.078C131.77 41.4807 132.204 41.0187 132.755 40.692C133.315 40.3653 133.936 40.202 134.617 40.202C135.289 40.202 135.872 40.3467 136.367 40.636C136.862 40.9253 137.23 41.2893 137.473 41.728V40.328H138.761V48H137.473V46.572C137.221 47.02 136.843 47.3933 136.339 47.692C135.844 47.9813 135.266 48.126 134.603 48.126C133.922 48.126 133.306 47.958 132.755 47.622C132.204 47.286 131.77 46.8147 131.453 46.208C131.136 45.6013 130.977 44.9107 130.977 44.136ZM137.473 44.15C137.473 43.5713 137.356 43.0673 137.123 42.638C136.89 42.2087 136.572 41.882 136.171 41.658C135.779 41.4247 135.345 41.308 134.869 41.308C134.393 41.308 133.959 41.42 133.567 41.644C133.175 41.868 132.862 42.1947 132.629 42.624C132.396 43.0533 132.279 43.5573 132.279 44.136C132.279 44.724 132.396 45.2373 132.629 45.676C132.862 46.1053 133.175 46.4367 133.567 46.67C133.959 46.894 134.393 47.006 134.869 47.006C135.345 47.006 135.779 46.894 136.171 46.67C136.572 46.4367 136.89 46.1053 137.123 45.676C137.356 45.2373 137.473 44.7287 137.473 44.15ZM142.188 37.64V48H140.914V37.64H142.188ZM145.913 41.378V45.9C145.913 46.2733 145.993 46.5393 146.151 46.698C146.31 46.8473 146.585 46.922 146.977 46.922H147.915V48H146.767C146.058 48 145.526 47.8367 145.171 47.51C144.817 47.1833 144.639 46.6467 144.639 45.9V41.378H143.645V40.328H144.639V38.396H145.913V40.328H147.915V41.378H145.913ZM153.267 40.188C153.846 40.188 154.368 40.314 154.835 40.566C155.302 40.8087 155.666 41.1773 155.927 41.672C156.198 42.1667 156.333 42.7687 156.333 43.478V48H155.073V43.66C155.073 42.8947 154.882 42.3113 154.499 41.91C154.116 41.4993 153.594 41.294 152.931 41.294C152.259 41.294 151.722 41.504 151.321 41.924C150.929 42.344 150.733 42.9553 150.733 43.758V48H149.459V37.64H150.733V41.42C150.985 41.028 151.33 40.7247 151.769 40.51C152.217 40.2953 152.716 40.188 153.267 40.188Z" fill="url(#paint2_linear_78_32)"/>
<defs>
<linearGradient id="paint0_linear_78_32" x1="28" y1="0" x2="28" y2="56" gradientUnits="userSpaceOnUse">
<stop stop-color="#8B5CF6"/>
<stop offset="1" stop-color="#3B82F6"/>
</linearGradient>
<linearGradient id="paint1_linear_78_32" x1="111.5" y1="2" x2="111.5" y2="44" gradientUnits="userSpaceOnUse">
<stop stop-color="#3B82F6"/>
<stop offset="1" stop-color="#8B5CF6"/>
</linearGradient>
<linearGradient id="paint2_linear_78_32" x1="135" y1="33" x2="135" y2="54" gradientUnits="userSpaceOnUse">
<stop stop-color="#3B82F6"/>
<stop offset="1" stop-color="#8B5CF6"/>
</linearGradient>
</defs>
</svg>
